<svg width="72" height="72" viewBox="0 0 72 72" fill="none" xmlns="http://www.w3.org/2000/svg">
<path d="M18.657 19.24C18.4069 18.8037 18.0665 18.4258 17.6585 18.1317C17.2506 17.8376 16.7845 17.6341 16.2915 17.5347C15.7985 17.4353 15.29 17.4423 14.7999 17.5554C14.3099 17.6684 13.8496 17.8849 13.45 18.1902C13.0504 18.4955 12.7206 18.8826 12.4827 19.3257C12.2448 19.7688 12.1043 20.2576 12.0706 20.7594C12.0369 21.2612 12.1107 21.7644 12.2872 22.2353C12.4637 22.7062 12.7388 23.134 13.094 23.49L24.627 38.59L27.315 41.977L19.425 31.646C19.1749 31.2097 18.8346 30.8319 18.4267 30.5378C18.0188 30.2438 17.5528 30.0402 17.0598 29.9408C16.5669 29.8413 16.0584 29.8483 15.5684 29.9613C15.0784 30.0742 14.6182 30.2906 14.2186 30.5957C13.8189 30.9009 13.4891 31.288 13.2511 31.7309C13.0131 32.1739 12.8725 32.6626 12.8386 33.1643C12.8048 33.666 12.8785 34.1692 13.0548 34.6401C13.2311 35.111 13.506 35.5389 13.861 35.895L21.752 46.226L28.022 54.125C33.49 60.398 42.537 60.055 48.809 54.59C52.4132 51.4217 54.7311 47.0421 55.324 42.28C55.71 38.047 56.131 26.979 56.131 26.979C55.949 24.378 52.996 22.455 52.616 23.799L47.722 33.556L44.356 29.333L47.722 33.556L44.356 29.333L30.891 12.125C30.6411 11.6883 30.3008 11.3101 29.8929 11.0156C29.485 10.7212 29.0188 10.5173 28.5257 10.4176C28.0325 10.318 27.5238 10.3249 27.0335 10.4378C26.5433 10.5508 26.0828 10.7672 25.683 11.0726C25.2832 11.378 24.9532 11.7653 24.7152 12.2085C24.4773 12.6518 24.3368 13.1408 24.3032 13.6428C24.2696 14.1448 24.3436 14.6481 24.5204 15.1192C24.6971 15.5902 24.9725 16.018 25.328 16.374L29.577 21.937L36 30.417L22.581 12.737C22.3314 12.3 21.9912 11.9214 21.5833 11.6265C21.1754 11.3317 20.7091 11.1275 20.2159 11.0276C19.7226 10.9277 19.2136 10.9344 18.7231 11.0473C18.2327 11.1601 17.772 11.3765 17.372 11.682C16.972 11.9875 16.6419 12.3749 16.4038 12.8183C16.1658 13.2618 16.0253 13.751 15.9918 14.2532C15.9583 14.7554 16.0325 15.2589 16.2095 15.7301C16.3865 16.2012 16.6621 16.6291 17.018 16.985L31.689 36" fill="#FCEA2B"/>
<path d="M18.657 19.24C18.4069 18.8037 18.0665 18.4258 17.6585 18.1317C17.2506 17.8376 16.7845 17.6341 16.2915 17.5347C15.7985 17.4353 15.29 17.4423 14.7999 17.5554C14.3099 17.6684 13.8496 17.8849 13.45 18.1902C13.0504 18.4955 12.7206 18.8826 12.4827 19.3257C12.2448 19.7688 12.1043 20.2576 12.0706 20.7594C12.0369 21.2612 12.1107 21.7644 12.2872 22.2353C12.4637 22.7062 12.7388 23.134 13.094 23.49L24.627 38.59L27.315 41.977L19.425 31.646C19.1749 31.2097 18.8346 30.8319 18.4267 30.5378C18.0188 30.2438 17.5528 30.0402 17.0598 29.9408C16.5669 29.8413 16.0584 29.8483 15.5684 29.9613C15.0784 30.0742 14.6182 30.2906 14.2186 30.5957C13.8189 30.9009 13.4891 31.288 13.2511 31.7309C13.0131 32.1739 12.8725 32.6626 12.8386 33.1643C12.8048 33.666 12.8785 34.1692 13.0548 34.6401C13.2311 35.111 13.506 35.5389 13.861 35.895L21.752 46.226L28.022 54.125C33.49 60.398 42.537 60.055 48.809 54.59C52.4132 51.4217 54.7311 47.0421 55.324 42.28C55.71 38.047 56.131 26.979 56.131 26.979C55.949 24.378 52.996 22.455 52.616 23.799L47.722 33.556L44.356 29.333L47.722 33.556L44.356 29.333L30.891 12.125C30.6411 11.6883 30.3008 11.3101 29.8929 11.0156C29.485 10.7212 29.0188 10.5173 28.5257 10.4176C28.0325 10.318 27.5238 10.3249 27.0335 10.4378C26.5433 10.5508 26.0828 10.7672 25.683 11.0726C25.2832 11.378 24.9532 11.7653 24.7152 12.2085C24.4773 12.6518 24.3368 13.1408 24.3032 13.6428C24.2696 14.1448 24.3436 14.6481 24.5204 15.1192C24.6971 15.5902 24.9725 16.018 25.328 16.374L29.577 21.937L36 30.417L22.581 12.737C22.3314 12.3 21.9912 11.9214 21.5833 11.6265C21.1754 11.3317 20.7091 11.1275 20.2159 11.0276C19.7226 10.9277 19.2136 10.9344 18.7231 11.0473C18.2327 11.1601 17.772 11.3765 17.372 11.682C16.972 11.9875 16.6419 12.3749 16.4038 12.8183C16.1658 13.2618 16.0253 13.751 15.9918 14.2532C15.9583 14.7554 16.0325 15.2589 16.2095 15.7301C16.3865 16.2012 16.6621 16.6291 17.018 16.985L31.689 36" stroke="black" stroke-width="2" stroke-linecap="round" stroke-linejoin="round"/>
<path d="M49.873 21.673C49.873 16.077 46.063 11.549 41.356 11.549M11.673 42.872C11.673 45.438 13.42 47.515 15.578 47.515L11.673 42.872ZM7.061 42.437C7.061 48.033 10.871 52.561 15.578 52.561L7.061 42.437ZM45.262 21.238C45.262 18.671 43.515 16.595 41.356 16.595L45.262 21.238Z" stroke="black" stroke-width="2" stroke-miterlimit="10" stroke-linecap="round" stroke-linejoin="round"/>
</svg>
